<?xml version="1.0" standalone="no"?>
<!DOCTYPE svg PUBLIC "-//W3C//DTD SVG 20010904//EN"
 "http://www.w3.org/TR/2001/REC-SVG-20010904/DTD/svg10.dtd">
<svg version="1.0" xmlns="http://www.w3.org/2000/svg"
 width="800.000000pt" height="800.000000pt" viewBox="0 0 800.000000 800.000000"
 preserveAspectRatio="xMidYMid meet">
<metadata>
Created by potrace 1.11, written by Peter Selinger 2001-2013
</metadata>
<g transform="translate(0.000000,800.000000) scale(0.100000,-0.100000)"
fill="#000000" stroke="none">
<path d="M1772 5418 c-78 -13 -134 -57 -181 -139 -58 -104 -63 -151 -66 -604
-3 -508 -12 -604 -68 -728 -36 -78 -109 -136 -159 -128 -5 0 -8 -42 -8 -94 l0
-94 42 -11 c83 -23 140 -118 173 -292 13 -64 18 -211 20 -573 3 -432 7 -472
60 -580 32 -66 100 -130 153 -145 41 -10 237 -18 246 -9 5 4 10 144 7 174 -1
6 -27 11 -59 11 -92 2 -143 50 -176 165 -23 85 -25 113 -26 489 -1 195 -6 384
-11 420 -21 146 -84 292 -166 380 l-56 60 46 44 c53 52 106 144 136 237 45
138 49 182 51 584 1 198 3 375 5 392 6 69 45 170 77 205 41 43 70 55 130 53
l47 -1 3 89 c2 49 -1 91 -6 95 -13 8 -168 8 -214 0z"/>
<path d="M6029 5420 c-22 -5 -23 -11 -23 -95 l1 -89 61 -2 c75 -2 116 -28 150
-97 45 -90 51 -156 52 -547 2 -393 8 -469 54 -598 34 -98 78 -174 133 -228
l46 -44 -50 -53 c-62 -65 -104 -140 -137 -242 -40 -122 -44 -180 -45 -577 -1
-202 -3 -373 -6 -380 -2 -7 -6 -27 -9 -45 -14 -103 -84 -211 -138 -214 -13 -1
-42 -2 -65 -2 -28 -1 -43 -6 -44 -14 -1 -17 -1 -149 0 -165 1 -16 190 -15 251
2 49 13 124 78 149 130 21 41 48 120 57 170 4 19 8 215 9 435 1 220 5 432 9
470 23 230 95 375 192 388 l29 4 3 96 c1 54 -1 96 -5 95 -4 -1 -22 1 -38 5
-91 22 -164 175 -181 380 -3 40 -7 254 -9 477 -2 332 -5 417 -19 473 -30 126
-88 210 -172 248 -42 19 -205 31 -255 19z"/>
<path d="M2112 5020 c-6 -4 -9 -2129 -3 -2162 0 -5 70 -8 155 -8 l153 0 1 883
c0 485 1 887 2 892 0 6 20 -35 44 -90 57 -129 568 -1313 635 -1470 29 -66 61
-142 73 -168 l22 -48 104 3 105 3 64 150 c36 83 73 168 83 190 10 22 74 171
143 330 68 160 132 306 140 325 8 19 22 51 30 70 127 296 248 573 286 655 l28
60 1 -865 c0 -476 1 -877 1 -892 l1 -28 309 0 309 0 -2 480 -1 480 295 1 c375
0 433 6 566 59 241 95 364 279 366 545 2 333 -204 553 -562 601 -89 12 -1430
11 -1439 -1 -4 -5 -18 -35 -31 -65 -12 -30 -33 -77 -45 -105 -13 -27 -116
-264 -230 -525 -114 -261 -219 -502 -234 -535 -15 -33 -61 -137 -102 -232 -40
-94 -76 -170 -80 -168 -5 4 -51 104 -160 353 -11 23 -28 61 -38 85 -49 108
-80 178 -178 402 -58 132 -120 273 -139 313 -19 41 -34 76 -34 79 0 2 -12 30
-26 61 -46 101 -70 155 -113 252 l-41 95 -226 0 c-124 0 -228 -2 -232 -5z
m3238 -264 c234 -30 349 -152 338 -359 -5 -96 -31 -161 -87 -216 -36 -35 -111
-73 -166 -85 -16 -3 -41 -9 -55 -13 -14 -3 -150 -8 -302 -10 -265 -5 -278 -4
-279 14 -5 177 -2 674 5 676 17 6 492 0 546 -7z"/>
<path d="M2352 2673 c-1 -32 -1 -75 -1 -96 l-1 -37 -26 17 c-40 26 -113 23
-157 -7 -44 -30 -57 -57 -57 -116 0 -112 123 -179 218 -118 19 13 22 13 22 -1
0 -10 10 -15 29 -15 l29 0 0 215 1 215 -29 0 c-27 0 -28 -1 -28 -57z m-49
-154 c28 -12 47 -47 47 -84 0 -76 -69 -116 -139 -80 -59 30 -60 128 -3 160 33
17 63 19 95 4z"/>
<path d="M3555 2518 l0 -213 28 -3 27 -3 0 215 0 216 -28 0 -27 0 0 -212z"/>
<path d="M5760 2608 c0 -35 -2 -38 -29 -38 -20 0 -30 -6 -34 -20 -5 -20 -4
-22 36 -24 21 -1 22 -6 27 -99 4 -89 7 -101 29 -118 38 -31 106 -21 106 16 0
17 -6 19 -33 17 -41 -4 -48 13 -47 111 l1 72 37 -1 c33 -2 37 1 37 22 0 21 -5
24 -35 24 -19 0 -36 3 -36 8 -1 4 -2 20 -3 37 -1 24 -6 29 -29 30 -25 2 -27
-1 -27 -37z"/>
<path d="M2585 2566 c-50 -22 -77 -60 -83 -114 -6 -68 18 -115 72 -142 50 -24
84 -25 133 -5 58 24 67 35 47 56 -16 18 -18 18 -44 -1 -43 -31 -95 -26 -132
10 -17 17 -27 34 -23 38 3 4 55 7 113 8 59 1 110 2 113 3 9 1 -5 71 -19 97
-27 51 -117 76 -177 50z m89 -36 c25 -9 63 -66 48 -73 -6 -3 -126 -2 -159 2
-20 2 6 50 36 66 31 17 42 18 75 5z"/>
<path d="M3262 2564 c-90 -38 -112 -164 -41 -231 16 -15 34 -29 39 -29 6 -1
11 -3 13 -4 11 -12 98 -5 129 11 48 24 53 34 27 52 -19 14 -23 13 -40 -4 -31
-31 -94 -26 -131 12 -22 21 -28 33 -19 38 6 4 59 7 116 6 l105 -2 0 36 c0 96
-104 156 -198 115z m119 -50 c22 -19 30 -52 15 -56 -9 -4 -136 -3 -158 1 -15
2 17 53 41 67 30 16 77 11 102 -12z"/>
<path d="M3805 2570 c-67 -20 -113 -103 -95 -171 11 -39 68 -98 98 -100 9 -1
31 -3 47 -5 67 -8 140 54 152 128 15 95 -100 178 -202 148z m116 -69 c21 -22
29 -39 29 -66 0 -27 -8 -44 -29 -66 -64 -64 -164 -14 -156 79 6 79 99 110 156
53z"/>
<path d="M4210 2572 c-8 -2 -26 -14 -38 -26 -23 -20 -24 -21 -20 -1 2 15 -3
21 -24 23 -20 2 -28 -1 -29 -12 0 -9 0 -99 0 -201 0 -102 0 -192 0 -200 1 -9
11 -15 26 -15 24 0 25 3 26 58 1 31 1 74 0 96 l-1 39 27 -19 c37 -24 119 -24
156 0 79 53 80 189 2 240 -26 17 -96 27 -125 18z m103 -71 c37 -37 24 -126
-22 -151 -53 -28 -122 4 -136 63 -9 33 19 95 47 107 32 14 88 4 111 -19z"/>
<path d="M4578 2562 c-30 -16 -38 -17 -38 -6 0 8 -10 14 -25 14 l-25 0 0 -135
0 -135 25 0 c14 0 25 3 25 8 1 4 2 47 4 96 2 79 5 91 25 107 24 20 57 24 78
11 21 -13 29 -55 28 -139 l-2 -83 28 0 27 0 4 100 c3 109 14 129 69 130 47 0
60 -27 61 -134 l0 -96 29 0 28 0 -2 110 c-3 98 -5 112 -26 134 -40 42 -126 42
-158 -1 -11 -14 -14 -14 -30 5 -27 31 -80 37 -125 14z"/>
<path d="M5095 2565 c-123 -52 -112 -231 16 -265 50 -14 92 -7 139 21 l34 21
-22 19 c-22 17 -24 17 -42 -1 -33 -33 -95 -27 -133 12 -29 28 -30 32 -13 38
10 3 59 5 110 5 50 -1 96 2 102 7 13 9 5 58 -14 94 -27 50 -117 75 -177 49z
m117 -52 c10 -9 18 -26 18 -38 0 -20 -4 -21 -72 -19 -105 3 -99 1 -87 27 24
54 98 69 141 30z"/>
<path d="M5484 2570 c-12 -5 -25 -13 -29 -19 -10 -17 -25 -13 -19 4 5 11 -1
15 -25 15 l-31 0 0 -135 0 -135 28 0 28 0 -1 78 c-2 112 18 151 76 152 51 0
63 -20 65 -111 2 -46 3 -92 3 -101 1 -12 9 -18 26 -18 27 0 26 -6 26 110 0 39
0 79 0 89 -1 11 -11 31 -23 46 -25 28 -87 41 -124 25z"/>
<path d="M2844 2553 c3 -10 28 -70 55 -133 45 -108 50 -115 78 -118 29 -3 31
0 71 95 22 54 48 115 56 136 l16 37 -29 0 c-27 0 -31 -5 -69 -102 l-40 -103
-24 55 c-14 30 -33 76 -43 103 -16 41 -21 47 -47 47 -23 0 -28 -4 -24 -17z"/>
</g>
</svg>
